<svg width="13" height="13" viewBox="0 0 13 13" fill="none" xmlns="http://www.w3.org/2000/svg">
<path d="M6.41099 0.173835C6.44815 0.10127 6.55185 0.10127 6.58901 0.173834L8.42922 3.76772C8.44375 3.79609 8.47092 3.81583 8.50239 3.82088L12.489 4.46045C12.5695 4.47337 12.6016 4.572 12.544 4.62976L9.69471 7.49048C9.67222 7.51306 9.66184 7.54501 9.66677 7.57649L10.2904 11.5657C10.303 11.6462 10.2191 11.7072 10.1464 11.6703L6.54522 9.84443C6.5168 9.83002 6.4832 9.83002 6.45478 9.84443L2.85358 11.6703C2.78087 11.7072 2.69697 11.6462 2.70956 11.5657L3.33323 7.57649C3.33816 7.54501 3.32778 7.51306 3.30529 7.49048L0.455954 4.62976C0.398423 4.572 0.43047 4.47337 0.510965 4.46045L4.49761 3.82088C4.52908 3.81583 4.55625 3.79609 4.57078 3.76772L6.41099 0.173835Z" fill="#E9A426"/>
</svg>
