<svg width="19" height="18" viewBox="0 0 19 18" fill="none" xmlns="http://www.w3.org/2000/svg">
<path d="M11.4574 17.3333C12.01 17.3333 12.5399 17.1138 12.9306 16.7231C13.3213 16.3324 13.5408 15.8025 13.5408 15.25C13.5408 14.6975 13.3213 14.1676 12.9306 13.7769C12.5399 13.3862 12.01 13.1667 11.4574 13.1667C10.9049 13.1667 10.375 13.3862 9.9843 13.7769C9.59359 14.1676 9.3741 14.6975 9.3741 15.25C9.3741 15.8025 9.59359 16.3324 9.9843 16.7231C10.375 17.1138 10.9049 17.3333 11.4574 17.3333ZM4.16577 17.3333C4.7183 17.3333 5.24821 17.1138 5.63891 16.7231C6.02961 16.3324 6.2491 15.8025 6.2491 15.25C6.2491 14.6975 6.02961 14.1676 5.63891 13.7769C5.24821 13.3862 4.7183 13.1667 4.16577 13.1667C3.61323 13.1667 3.08333 13.3862 2.69263 13.7769C2.30193 14.1676 2.08243 14.6975 2.08243 15.25C2.08243 15.8025 2.30193 16.3324 2.69263 16.7231C3.08333 17.1138 3.61323 17.3333 4.16577 17.3333ZM17.747 2.6698C18.0071 2.66141 18.2536 2.55221 18.4346 2.3653C18.6156 2.17839 18.7168 1.92841 18.7168 1.66823C18.7168 1.40806 18.6156 1.15808 18.4346 0.971169C18.2536 0.784255 18.0071 0.675059 17.747 0.666672H16.5481C15.6085 0.666672 14.796 1.31876 14.5918 2.23542L13.2866 8.1125C13.0824 9.02917 12.2699 9.68125 11.3304 9.68125H3.50535L2.00327 3.67084H11.7376C11.9952 3.65908 12.2384 3.54848 12.4165 3.36204C12.5946 3.17559 12.694 2.92766 12.694 2.6698C12.694 2.41194 12.5946 2.164 12.4165 1.97756C12.2384 1.79111 11.9952 1.68051 11.7376 1.66875H2.00327C1.69875 1.66867 1.39823 1.738 1.12453 1.8715C0.85084 2.00499 0.611185 2.19913 0.423786 2.43916C0.236387 2.67918 0.106178 2.95877 0.0430584 3.25667C-0.0200634 3.55457 -0.0144329 3.86294 0.0595188 4.15834L1.5616 10.1667C1.66989 10.6002 1.92003 10.9851 2.27224 11.2601C2.62444 11.5351 3.05849 11.6845 3.50535 11.6844H11.3304C12.242 11.6845 13.1265 11.3737 13.8376 10.8032C14.5488 10.2328 15.0441 9.43686 15.2418 8.54688L16.5481 2.6698H17.747Z" fill="#0156FF"/>
</svg>
