<svg width="30" height="30" viewBox="0 0 30 30" fill="none" xmlns="http://www.w3.org/2000/svg">
<circle cx="15" cy="15" r="14" stroke="#8C8C8C" stroke-width="2"/>
<path d="M14.6851 11.8254L15.3954 12.5419L16.1056 11.8254C16.7788 11.1462 17.8139 10.375 18.8922 10.375C19.9606 10.375 20.8026 10.7307 21.3714 11.278C21.9374 11.8225 22.2936 12.6141 22.2936 13.6095C22.2936 14.6805 21.8643 15.5925 21.1287 16.4761C20.3739 17.3829 19.3563 18.1913 18.2509 19.0643L18.2252 19.0846C17.2883 19.8241 16.2458 20.647 15.3958 21.5675C14.5542 20.655 13.5216 19.8387 12.593 19.1047L12.5424 19.0646L12.542 19.0643C11.4363 18.1911 10.4189 17.3825 9.66433 16.4757C8.92905 15.5921 8.5 14.6802 8.5 13.6095C8.5 12.6141 8.8562 11.8226 9.42223 11.278C9.99108 10.7308 10.8333 10.375 11.9021 10.375C12.9791 10.375 14.0111 11.1454 14.6851 11.8254Z" stroke="#8C8C8C" stroke-width="2"/>
</svg>
