<svg width="22" height="22" viewBox="0 0 22 22" fill="none" xmlns="http://www.w3.org/2000/svg">
<g opacity="0.5">
<path d="M18.8155 2.50439H3.18356C2.80762 2.50439 2.50391 2.80811 2.50391 3.18404V18.816C2.50391 19.1919 2.80762 19.4956 3.18356 19.4956H18.8155C19.1914 19.4956 19.4951 19.1919 19.4951 18.816V3.18404C19.4951 2.80811 19.1914 2.50439 18.8155 2.50439ZM16.853 7.46371H15.4958C14.4318 7.46371 14.2257 7.9692 14.2257 8.71257V10.3501H16.7659L16.4346 12.9137H14.2257V19.4956H11.5772V12.9158H9.362V10.3501H11.5772V8.45983C11.5772 6.26583 12.9174 5.07007 14.8757 5.07007C15.8144 5.07007 16.6194 5.14016 16.8551 5.17202V7.46371H16.853Z" fill="white"/>
</g>
</svg>
