<svg width="22" height="22" viewBox="0 0 22 22" fill="none" xmlns="http://www.w3.org/2000/svg">
<g opacity="0.5">
<path d="M10.9999 8.13619C9.4229 8.13619 8.13599 9.4231 8.13599 11.0001C8.13599 12.577 9.4229 13.8639 10.9999 13.8639C12.5768 13.8639 13.8637 12.577 13.8637 11.0001C13.8637 9.4231 12.5768 8.13619 10.9999 8.13619ZM19.5893 11.0001C19.5893 9.81411 19.6001 8.63892 19.5335 7.45513C19.4669 6.08013 19.1532 4.85982 18.1477 3.85435C17.1401 2.84673 15.9219 2.53521 14.5469 2.46861C13.361 2.40201 12.1858 2.41275 11.002 2.41275C9.81607 2.41275 8.64087 2.40201 7.45709 2.46861C6.08208 2.53521 4.86177 2.84888 3.8563 3.85435C2.84869 4.86197 2.53716 6.08013 2.47056 7.45513C2.40396 8.64107 2.4147 9.81626 2.4147 11.0001C2.4147 12.1838 2.40396 13.3612 2.47056 14.545C2.53716 15.92 2.85083 17.1403 3.8563 18.1458C4.86392 19.1534 6.08208 19.4649 7.45709 19.5315C8.64302 19.5981 9.81822 19.5874 11.002 19.5874C12.1879 19.5874 13.3631 19.5981 14.5469 19.5315C15.9219 19.4649 17.1422 19.1512 18.1477 18.1458C19.1553 17.1381 19.4669 15.92 19.5335 14.545C19.6022 13.3612 19.5893 12.186 19.5893 11.0001ZM10.9999 15.4065C8.56138 15.4065 6.59341 13.4385 6.59341 11.0001C6.59341 8.56158 8.56138 6.59361 10.9999 6.59361C13.4383 6.59361 15.4063 8.56158 15.4063 11.0001C15.4063 13.4385 13.4383 15.4065 10.9999 15.4065ZM15.5868 7.44224C15.0174 7.44224 14.5577 6.98247 14.5577 6.41314C14.5577 5.8438 15.0174 5.38404 15.5868 5.38404C16.1561 5.38404 16.6159 5.8438 16.6159 6.41314C16.616 6.54833 16.5895 6.68223 16.5379 6.80716C16.4862 6.93209 16.4104 7.04561 16.3148 7.1412C16.2192 7.2368 16.1057 7.31259 15.9808 7.36425C15.8559 7.41591 15.722 7.44241 15.5868 7.44224Z" fill="white"/>
</g>
</svg>
